<?xml version="1.0" encoding="UTF-8"?><svg id="a" xmlns="http://www.w3.org/2000/svg" viewBox="0 0 7.68 10"><polygon points="4.27 3.03 2.53 4.62 4.27 4.62 4.27 3.03" style="fill:#fff;"/><polygon points="2.08 .45 .34 2.05 2.08 2.05 2.08 .45" style="fill:#fff;"/><path d="M4.6,1.72h.89V0H2.94V2.48c0,.24-.19,.43-.43,.43H0V7.42H1.33v-2.68c0-.12,.05-.24,.14-.32L4.31,1.83c.08-.07,.18-.11,.29-.11Z" style="fill:#fff;"/><path d="M5.13,5.05c0,.24-.19,.43-.43,.43H2.19v4.52H7.68V2.58h-2.55v2.47Z" style="fill:#fff;"/></svg>